<?xml version="1.0" standalone="no"?>
<!DOCTYPE svg PUBLIC "-//W3C//DTD SVG 20010904//EN"
 "http://www.w3.org/TR/2001/REC-SVG-20010904/DTD/svg10.dtd">
<svg version="1.0" xmlns="http://www.w3.org/2000/svg"
 width="363.000000pt" height="363.000000pt" viewBox="0 0 363.000000 363.000000"
 preserveAspectRatio="xMidYMid meet">
<metadata>
Created by potrace 1.14, written by Peter Selinger 2001-2017
</metadata>
<g transform="translate(0.000000,363.000000) scale(0.100000,-0.100000)"
fill="#000000" stroke="none">
<path d="M0 1815 l0 -1815 1815 0 1815 0 0 1815 0 1815 -1815 0 -1815 0 0
-1815z m2018 1384 c249 -63 450 -261 507 -500 19 -82 19 -238 0 -314 -8 -33
-34 -98 -57 -145 -57 -118 -176 -237 -298 -298 -222 -111 -458 -111 -680 0
-121 60 -240 179 -298 298 -55 112 -72 184 -72 300 0 155 44 288 132 403 176
229 475 329 766 256z m462 -1774 l0 -185 -245 0 -245 0 0 -250 0 -250 245 0
245 0 0 -185 0 -185 -700 0 -700 0 0 185 0 185 265 0 265 0 0 250 0 250 -265
0 -265 0 0 185 0 185 700 0 700 0 0 -185z"/>
<path d="M1720 2865 c-235 -73 -331 -319 -201 -509 122 -177 406 -207 568 -61
135 120 151 320 38 452 -94 110 -267 160 -405 118z"/>
</g>
</svg>
