<svg width="81" height="92" viewBox="0 0 81 92" fill="none" xmlns="http://www.w3.org/2000/svg">
<path fill-rule="evenodd" clip-rule="evenodd" d="M6.16064 48.2594V86.8068C6.16064 89.3354 8.22453 91.3848 10.7709 91.3848H75.4796C78.026 91.3848 80.0899 89.3354 80.0899 86.8068V48.2594H6.16064Z" fill="#FBE7C2"/>
<path fill-rule="evenodd" clip-rule="evenodd" d="M78.434 45.0216L45.5102 21.3035C44.0903 20.2802 42.1603 20.2802 40.7403 21.3035L7.81654 45.0216C6.77617 45.7714 6.16064 46.9661 6.16064 48.2359V48.2595H80.0899V48.2359C80.0899 46.9661 79.4744 45.7714 78.434 45.0216Z" fill="#FDE1B9"/>
<path fill-rule="evenodd" clip-rule="evenodd" d="M69.4088 41.7563H17.5274C16.7318 41.7563 16.0864 42.3948 16.0864 43.183V83.7965C16.0864 84.5856 16.7318 85.224 17.5274 85.224H69.4088C70.2044 85.224 70.8488 84.5856 70.8488 83.7965V43.183C70.8488 42.3948 70.2044 41.7563 69.4088 41.7563Z" fill="white"/>
<path fill-rule="evenodd" clip-rule="evenodd" d="M24.6861 54.4201H62.5913C62.993 54.4201 63.319 54.1135 63.319 53.7356C63.319 53.3568 62.993 53.051 62.5913 53.051H24.6861C24.2844 53.051 23.9585 53.3568 23.9585 53.7356C23.9585 54.1135 24.2844 54.4201 24.6861 54.4201Z" fill="#2C495B"/>
<path fill-rule="evenodd" clip-rule="evenodd" d="M62.5913 59.5541H24.6861C24.2844 59.5541 23.9585 59.8607 23.9585 60.2386C23.9585 60.6165 24.2844 60.9231 24.6861 60.9231H62.5913C62.993 60.9231 63.319 60.6165 63.319 60.2386C63.319 59.8607 62.993 59.5541 62.5913 59.5541Z" fill="#2C495B"/>
<path fill-rule="evenodd" clip-rule="evenodd" d="M62.5913 65.3727H24.6861C24.2844 65.3727 23.9585 65.6791 23.9585 66.0568C23.9585 66.4353 24.2844 66.7417 24.6861 66.7417H62.5913C62.993 66.7417 63.319 66.4353 63.319 66.0568C63.319 65.6791 62.993 65.3727 62.5913 65.3727Z" fill="#2C495B"/>
<path fill-rule="evenodd" clip-rule="evenodd" d="M10.9526 91.3848H75.5698C78.0662 91.3848 80.0902 89.3697 80.0902 86.8843V48.2594L10.9526 91.3848Z" fill="#FFBDBC"/>
<path fill-rule="evenodd" clip-rule="evenodd" d="M6.16064 48.2594V86.8843C6.16064 89.3697 8.18463 91.3848 10.681 91.3848H75.2982L6.16064 48.2594Z" fill="#FFA5A4"/>
<path fill-rule="evenodd" clip-rule="evenodd" d="M28.0656 2.39587L29.8221 6.4588L33.8841 8.21438L29.8221 9.96996L28.0656 14.0329L26.31 9.96996L22.2471 8.21438L26.31 6.4588L28.0656 2.39587Z" fill="#FFACA6"/>
<path fill-rule="evenodd" clip-rule="evenodd" d="M75.6413 19.1667L76.9832 22.2733L80.0903 23.6162L76.9832 24.9591L75.6413 28.0656L74.2977 24.9591L71.1914 23.6162L74.2977 22.2733L75.6413 19.1667Z" fill="#FFACA6"/>
<path fill-rule="evenodd" clip-rule="evenodd" d="M9.75488 24.3009L10.7358 26.571L13.006 27.5529L10.7358 28.5338L9.75488 30.8039L8.77306 28.5338L6.50293 27.5529L8.77306 26.571L9.75488 24.3009Z" fill="#FFACA6"/>
<path fill-rule="evenodd" clip-rule="evenodd" d="M61.5236 0.120987C63.5365 0.641036 64.7451 2.69523 64.2251 4.70817C63.7041 6.72022 61.65 7.92979 59.6381 7.40884C57.6252 6.88879 56.4166 4.8355 56.9366 2.82255C57.4575 0.809604 59.5107 -0.399958 61.5236 0.120987Z" fill="#FAE8C0"/>
<path fill-rule="evenodd" clip-rule="evenodd" d="M5.13398 14.2041C5.13398 15.6211 3.98498 16.7711 2.56699 16.7711C1.149 16.7711 0 15.6211 0 14.2041C0 12.7861 1.149 11.6371 2.56699 11.6371C3.98498 11.6371 5.13398 12.7861 5.13398 14.2041Z" fill="#FAE8C0"/>
</svg>
